<svg class="svg-avatar" version="1.0" xmlns="http://www.w3.org/2000/svg" width="123.000000pt"
          height="208.000000pt" viewBox="0 0 123.000000 208.000000" preserveAspectRatio="xMidYMid meet">
          <g transform="translate(0.000000,208.000000) scale(0.100000,-0.100000)" stroke="none">
            <linearGradient id="bg-gradient" gradientUnits="userSpaceOnUse" gradientTransform="matrix(1 0 0 1 11.56 0)"
              x1="0" y1="1024.033979280637" x2="1187.5082515093025" y2="1024.033979280637">
              <stop offset="8.78%" style="stop-color:rgba(24, 24, 35, 1);" />
              <stop offset="78.049%" style="stop-color:rgba(91, 91, 92, 1);" />
              <stop offset="90.244%" style="stop-color:rgba(104, 104, 104, 1);" />
              <stop offset="100%" style="stop-color:rgba(148, 148, 148, 1);" />
            </linearGradient>
            <path style="fill: url(#bg-gradient);" d="M775 2005 c-113 -50 -135 -54 -153 -25 -23 37 -51 23 -146 -70 -51
           -49 -98 -90 -104 -90 -6 0 -14 11 -18 24 -14 57 -61 38 -117 -47 -44 -66 -58
           -78 -88 -75 -21 3 -30 -9 -77 -103 -44 -88 -54 -119 -59 -176 -10 -118 33
           -256 104 -338 38 -44 137 -116 255 -187 137 -82 208 -142 208 -178 0 -12 -16
           -40 -35 -61 -89 -99 -206 -417 -230 -627 l-6 -52 351 0 350 0 0 88 c0 99 -22
           279 -44 362 -18 70 -47 142 -86 220 -32 63 -38 107 -17 132 6 8 55 49 109 91
           111 88 140 122 164 195 13 42 15 72 11 134 -4 45 -8 82 -10 84 -2 2 -27 -5
           -56 -16 -72 -28 -86 -19 -102 69 l-12 70 -41 -21 c-23 -11 -42 -21 -43 -22 -1
           -1 4 -29 12 -61 22 -92 20 -109 -20 -144 -20 -17 -54 -40 -76 -52 -37 -18 -43
           -19 -63 -5 -18 11 -52 56 -101 133 0 1 -75 -36 -165 -82 -167 -85 -200 -97
           -200 -70 0 9 64 47 169 100 93 46 180 95 193 108 26 26 208 137 225 137 6 0
           13 -5 15 -11 4 -13 56 10 99 45 15 12 40 28 57 38 27 14 30 20 26 55 -5 40 1
           53 54 124 25 33 32 50 27 69 -5 20 0 31 32 57 37 31 38 33 23 59 -18 33 -130
           101 -179 110 -20 4 -46 18 -58 30 -31 34 -63 30 -178 -21z" />
          </g>
        </svg>